
<svg xmlns="http://www.w3.org/2000/svg" version="1.1" xmlns:xlink="http://www.w3.org/1999/xlink" preserveAspectRatio="none" x="0px" y="0px" width="800px" height="300px" viewBox="0 0 800 300">
<defs>
<g id="Layer1_0_FILL">
<path fill="#D13B31" stroke="none" d="
M 143.9 179.35
Q 143.950390625 179.4509765625 144 179.55 148.25 188.1630859375 148.25 197.8 148.25 215 136.15 227.15 134.8970703125 228.403125 133.6 229.5 129.6767578125 232.90234375 125.25 235.1 119.0439453125 238.2228515625 111.85 239 109.4083984375 239.3 106.85 239.3 104.5857421875 239.3 102.35 239.05 100.15234375 238.812109375 98 238.35 96.1525390625 237.955859375 94.35 237.4 92.562890625 236.7990234375 90.8 236.05 89.24609375 235.3921875 87.75 234.6 86.269921875 233.854296875 84.85 232.95 84.0009765625 232.4111328125 83.15 231.8 80.6740234375 230.11015625 78.4 228
L 121 270.55
Q 121.744140625 270.4072265625 122.45 270.25 124.6900390625 269.7955078125 126.85 269.2 129.121484375 268.5669921875 131.35 267.8 135.905859375 266.23671875 140.15 264.05 146.5642578125 260.864453125 152.25 256.4 155.91640625 253.560546875 159.25 250.2 159.2751953125 250.1751953125 159.3 250.15 159.4015625 250.0484375 159.5 249.95 169.605859375 239.76875 175.2 226.65 177.408984375 221.3826171875 178.8 215.8 179.2271484375 213.9248046875 179.6 212
L 144 176.4 143.9 176.3 143.9 179.35 Z"/>

<path fill="#212121" stroke="none" d="
M 77.65 168.5
Q 65.55 180.65 65.55 197.75 65.55 214.95 77.65 227.1 80.2986328125 229.7486328125 83.15 231.8 84.0009765625 232.4111328125 84.85 232.95 86.269921875 233.854296875 87.75 234.6 89.24609375 235.3921875 90.8 236.05 92.562890625 236.7990234375 94.35 237.4 96.1525390625 237.955859375 98 238.35 100.15234375 238.812109375 102.35 239.05 104.61875 239.25 106.95 239.25 109.4537109375 239.25 111.85 239 119.0439453125 238.2228515625 125.25 235.1 129.6767578125 232.90234375 133.6 229.5 134.8970703125 228.403125 136.15 227.15 148.25 215 148.25 197.8 148.25 188.1630859375 144 179.55
L 144 189.2
Q 144 191.1 142.7 192.45
L 132.6 203.2 129.1 199.95 138.15 190.35
Q 139.25 189.15 139.25 187.55
L 139.25 171.9
Q 133.45 164.65 125.2 160.55 116.6 156.35 106.95 156.35 89.8 156.35 77.65 168.5
M 95.35 197.75
Q 95.35 193 98.75 189.6 102.15 186.25 106.95 186.25 111.75 186.25 115.15 189.6 118.55 193 118.55 197.75 118.55 202.6 115.15 206 111.75 209.35 106.95 209.35 102.15 209.35 98.75 206 95.35 202.6 95.35 197.75
M 124.75 201.65
Q 125.25 201.15 125.9 201.15 126.5 201.1 127 201.6
L 131.05 205.4
Q 131.55 205.9 131.55 206.55 131.55 207.15 131.15 207.65
L 121.4 218
Q 120.95 218.5 120.3 218.5 119.7 218.5 119.15 218.05
L 115.1 214.25
Q 114.65 213.75 114.65 213.15 114.6 212.45 115 212
L 116.35 210.6 114.15 208.55 115.15 207.45 117.35 209.5 124.75 201.65 Z"/>

<path fill="#E3533B" stroke="none" d="
M 98.75 189.6
Q 95.35 193 95.35 197.75 95.35 202.6 98.75 206 102.15 209.35 106.95 209.35 111.75 209.35 115.15 206 118.55 202.6 118.55 197.75 118.55 193 115.15 189.6 111.75 186.25 106.95 186.25 102.15 186.25 98.75 189.6
M 231.8 26.9
Q 222 20.9 209.85 21.8 202.5 22.35 187.9 26.9 173.25 31.45 165.95 32 153.7 32.9 144 26.9
L 144 176.4 179.6 212
Q 179.2271484375 213.9248046875 178.8 215.8 181 207.02734375 181 197.75
L 181 82.2
Q 185.25 81 193.7 78.4 201.15 76.2 206.4 75.5 220.8 73.4 231.8 80.15
L 231.8 26.9
M 106.95 239.25
Q 104.61875 239.25 102.35 239.05 104.5857421875 239.3 106.85 239.3 109.4083984375 239.3 111.85 239 109.4537109375 239.25 106.95 239.25
M 78.15 129.55
Q 64.8 135.15 54.55 145.45 44.3 155.7 38.65 168.95 32.85 182.7 32.85 197.75 32.85 212.85 38.65 226.65 44.3 239.9 54.55 250.15 64.8 260.45 78.15 266.05 91.85 271.9 106.95 271.9 114.9115234375 271.9 122.45 270.25 121.744140625 270.4072265625 121 270.55
L 78.4 228
Q 80.6740234375 230.11015625 83.15 231.8 80.2986328125 229.7486328125 77.65 227.1 65.55 214.95 65.55 197.75 65.55 180.65 77.65 168.5 89.8 156.35 106.95 156.35 116.6 156.35 125.2 160.55 133.45 164.65 139.25 171.9
L 139.25 131.15
Q 124 123.7 106.95 123.7 91.85 123.7 78.15 129.55 Z"/>

<path fill="#424242" stroke="none" d="
M 233.55 144.8
Q 233.55 138.55 236.1 137.2 238.6 135.75 249.45 135.75
L 272.55 136
Q 275.65 135.8 275.65 133.4
L 275.65 127.15
Q 275.65 123.7 271.4 122.8 262.6 121.1 248.8 121.1 232.5 121.1 225.8 125.9 219.9 130.1 217.95 136.9 216.85 140.55 216.85 146.55 216.85 159.55 222 164.85 227.95 171.05 241.95 171.05
L 249.65 171.05
Q 259.05 171.05 261 171.95 265.15 173.85 265.15 182.2
L 265.15 187
Q 265.15 193.7 261.95 195.35 259.1 196.9 247 196.9 236.3 196.9 223.75 195.9 218.65 195.45 218.65 198.4
L 218.65 204.45
Q 218.65 207.85 222.95 208.8 237.1 211.55 244.85 211.55 265.8 211.55 273.6 205.95 282.2 199.7 282.2 184.9 282.2 170.45 275.8 164.25 269 157.7 251.95 157.7
L 247.15 157.7
Q 237.25 157.8 235 155.5 234.2 154.65 233.9 152.9
L 233.55 144.8
M 356 121.85
L 344.35 121.85
Q 341.05 121.85 339.6 124.55
L 325 153.15 310.65 124.7
Q 309.2 121.85 305.75 121.85
L 294.1 121.85
Q 291.3 121.85 291.3 124
L 291.9 126 316.9 168.4 316.9 206.55
Q 316.9 210.45 320.25 210.45
L 329.65 210.45
Q 333.15 210.45 333.15 206.55
L 333.15 168.55 358.35 125.6 358.9 123.85
Q 358.9 121.85 356 121.85
M 386.3 121.95
L 374.15 121.95
Q 370.65 121.95 370.65 125.45
L 370.65 206.55
Q 370.65 210.45 374 210.45
L 383.45 210.45
Q 386.95 210.45 386.95 206.55
L 386.95 152.5 386.05 142.75 422.55 206.8
Q 424.6 210.45 427.6 210.45
L 438.35 210.45
Q 441.85 210.45 441.85 206.55
L 441.85 125.6
Q 441.85 121.95 438.5 121.95
L 429.05 121.95
Q 425.55 121.95 425.55 125.45
L 425.55 176.7 426.4 187.15 391 125.3
Q 389 121.95 386.3 121.95
M 518.1 136.8
Q 523.1 137.25 523.1 134.3
L 523.1 127.8
Q 523.1 124.4 518.85 123.55 506.5 121.1 495.35 121.1 478 121.1 469.85 127 462.75 132 460.25 139.65 457.4 147.95 457.4 166.25 457.4 181.2 459.55 189.35 461.7 196.95 466.55 202.3 474.95 211.2 495.35 211.2 509.65 211.2 519.4 208.95 523.1 207.95 523.1 204.95
L 523.1 198.4
Q 523.1 196.2 521.75 195.75
L 496.5 196.05
Q 484.7 196.05 480.05 193.1 474.4 189.4 474.4 179.15
L 474.4 152.05
Q 474.4 142 481.05 138.55 485.9 136.15 498.4 136.15 509.4 136.15 518.1 136.8 Z"/>

<path fill="#999999" stroke="none" d="
M 549.1 116.55
Q 549.1 114.25 547.15 114.25
L 540.05 114.25
Q 538.15 114.25 538.15 116.55
L 538.15 204.8
Q 538.15 207.25 540.75 208.55 545.85 211.15 558.9 211.15
L 565.2 211.15
Q 575.95 211.15 582.9 205.3 590.35 198.8 590.35 187.3
L 590.35 165.15
Q 590.35 154.75 584.05 148.95 577.8 143.35 567.05 143.35
L 564.05 143.35
Q 554.15 143.35 549.1 150.55
L 549.1 116.55
M 548.75 159.7
Q 548.75 155.95 551.25 154.25 553.7 152.5 559.05 152.5
L 567.35 152.5
Q 573.65 152.5 576.95 156.85 579.6 160.3 579.6 165.35
L 579.6 188.1
Q 579.6 201.45 568.1 201.45
L 557.15 201.45
Q 548.75 201.45 548.75 199.5
L 548.75 159.7
M 738.95 130.1
L 738.95 139.55
Q 738.95 142.55 737.8 143.75 737.1 144.6 734.7 145.1
L 731.1 145.95
Q 729.65 146.25 729.65 147.65
L 729.65 151.2
Q 729.65 153.2 731.55 153.2
L 738.95 153.2 738.95 194
Q 738.95 211.35 753.5 211.35 758.4 211.35 763.6 209 765.2 208.25 765.2 206.7
L 765.2 202.75
Q 765.2 201.4 764.1 201.3
L 762.9 201.55
Q 760.2 202.55 756.8 202.55 752.45 202.55 750.9 200.15 749.65 198.4 749.65 193.85
L 749.65 153.2 761.9 153.2
Q 763.65 153.2 763.65 151.45
L 763.65 146.1
Q 763.65 144.05 761.85 144.05
L 749.65 144.05 749.65 130.35
Q 749.65 128.35 747.8 128.35
L 740.8 128.35
Q 738.95 128.35 738.95 130.1
M 654.95 170
Q 654.95 160.5 652.65 155.25 650.6 150.6 645.7 147.1 640 143.15 629.5 143.15 619.55 143.15 613.7 147.25 604 154.1 604 177.15 604 196.65 611.1 204.2 617.5 211 630.55 211 640.6 211 649.2 207.85 651.6 207.1 651.6 205.6
L 651.6 201.75
Q 651.6 199.4 648.7 199.7 637.65 201.15 631.4 201.15 623.05 201.15 619.4 198.5 615.15 195.5 615.15 187.9
L 615.15 182.55 652.2 182.55
Q 654.95 182.55 654.95 180.25
L 654.95 170
M 643.95 174
L 615.15 174 615.15 164.05
Q 615.15 157.7 618.25 155.2 621.4 152.6 629.5 152.6 637.25 152.6 640.6 154.95 643.95 157.3 643.95 163.1
L 643.95 174
M 710.3 147.2
Q 705.05 143.15 694.6 143.15 683.85 143.15 675.45 145.45 672.8 146.1 672.8 147.85
L 672.8 152
Q 672.8 154.45 675.05 154.05 683 152.65 691.6 152.65 700.3 152.65 703.8 154.95 707.7 157.55 707.4 164.2
L 706.7 175.45
Q 702 170 693.3 170
L 687.2 170
Q 667.15 170 667.15 189.2
L 667.15 192.1
Q 667.15 211.2 686.8 211.2
L 689.5 211.2
Q 696.8 211.2 701.45 207.95
L 706.95 203.3
Q 709.75 210.85 714.55 210.85 716.3 210.45 719.6 209.55
L 722.8 208.8
Q 725.4 208 725.4 206.05
L 725.4 203.75
Q 725.4 201.7 723.25 201.7
L 720.6 201.7
Q 717.55 201.7 717.55 196.2
L 717.55 167.1
Q 717.55 152.65 710.3 147.2
M 679.2 181.1
Q 681.15 178.6 686.5 178.6
L 696.65 178.6
Q 703.05 178.6 705.2 180.1 706.85 181.25 706.85 184.3
L 706.85 196.05
Q 706.85 198.2 705.2 199.35 701.65 201.75 693.15 201.75
L 688.05 201.75
Q 677.5 201.75 677.5 192.4
L 677.5 188.45
Q 677.5 183.15 679.2 181.1 Z"/>
</g>
</defs>

<g transform="matrix( 1, 0, 0, 1, 0,0) ">
<use xlink:href="#Layer1_0_FILL"/>
</g>
</svg>
